<?xml version="1.0" encoding="UTF-8" standalone="no"?>
<!-- Created with Inkscape (http://www.inkscape.org/) -->

<svg
   width="69.999992"
   height="69.84536"
   viewBox="0 0 18.520831 18.479918"
   version="1.1"
   id="svg5"
   sodipodi:docname="desenho.svg"
   xmlns:inkscape="http://www.inkscape.org/namespaces/inkscape"
   xmlns:sodipodi="http://sodipodi.sourceforge.net/DTD/sodipodi-0.dtd"
   xmlns="http://www.w3.org/2000/svg"
   xmlns:svg="http://www.w3.org/2000/svg">
  <sodipodi:namedview
     id="namedview7"
     pagecolor="#ffffff"
     bordercolor="#000000"
     borderopacity="0.25"
     inkscape:showpageshadow="2"
     inkscape:pageopacity="0.0"
     inkscape:pagecheckerboard="0"
     inkscape:deskcolor="#d1d1d1"
     inkscape:document-units="px"
     showgrid="false"
     inkscape:zoom="2.5293854"
     inkscape:cx="34.198031"
     inkscape:cy="51.198209"
     inkscape:window-width="1366"
     inkscape:window-height="704"
     inkscape:window-x="0"
     inkscape:window-y="0"
     inkscape:window-maximized="1"
     inkscape:current-layer="layer1" />
  <defs
     id="defs2" />
  <g
     inkscape:label="Camada 1"
     inkscape:groupmode="layer"
     id="layer1"
     transform="translate(-2.2331436,-2.2894625)">
    <circle
       style="fill:none;stroke:none;stroke-width:0.264583;stroke-dasharray:none;stroke-opacity:1"
       id="path175"
       cx="-4.4403315"
       cy="-22.005409"
       r="12.468079"
       transform="rotate(146.4264)"
       inkscape:export-filename="path175.svg"
       inkscape:export-xdpi="96"
       inkscape:export-ydpi="96" />
    <circle
       style="fill:none;stroke:none;stroke-width:0.264583;stroke-dasharray:none;stroke-opacity:1"
       id="circle1047"
       cx="5.7096915"
       cy="21.712454"
       r="12.468079"
       transform="matrix(-0.50402402,0.86368963,0.86368963,0.50402402,0,0)" />
    <g
       id="g2389"
       transform="matrix(0.68297053,0,0,0.68297053,0.70797228,0.72582707)">
      <g
         id="g2161"
         transform="translate(0.95907744,1.0893078)">
        <g
           aria-label="CLAUDOMIRO MONTEIRO"
           id="text113"
           style="font-size:3.52778px;font-family:FreeMono;-inkscape-font-specification:FreeMono;stroke:#000000;stroke-width:0.264583">
          <path
             d="m 4.330038,23.153066 q -0.058757,0.03225 -0.150742,0.06263 -0.096775,0.02898 -0.2400557,0.03922 -0.1432807,0.01024 -0.2784948,-0.01615 Q 3.5255315,23.212379 3.384198,23.108867 3.239772,23.007052 3.1430096,22.830781 2.9715533,22.51844 3.0627081,22.178648 l -0.089682,0.04923 q -0.083497,0.04584 -0.1191463,-0.01911 -0.033952,-0.06185 0.049545,-0.107684 l 0.3463577,-0.19013 q 0.083497,-0.04584 0.1191463,0.01911 0.030557,0.05566 -0.040268,0.102592 -0.1371613,0.08737 -0.154031,0.305893 -0.018567,0.215435 0.095171,0.422631 0.1408997,0.256676 0.4389761,0.330486 0.2949838,0.07551 0.5702145,-0.07558 L 4.4985579,22.895561 Q 4.776881,22.742778 4.873734,22.428028 4.9674945,22.114976 4.8181069,21.842838 4.7298323,21.682029 4.5952892,21.590887 4.460746,21.499745 4.2444035,21.45753 q -0.046203,-0.01086 -0.061481,-0.03869 -0.033952,-0.06185 0.024805,-0.0941 0.027832,-0.01528 0.1137509,0.0019 0.085919,0.01723 0.1980903,0.06028 0.1090793,0.04476 0.2298577,0.147478 0.1207783,0.102723 0.1954721,0.238792 0.1731539,0.315433 0.06605,0.692151 -0.1118941,0.375322 -0.4242346,0.546779 z"
             id="path2163" />
          <path
             d="M 2.4189479,20.779468 4.0231535,20.226417 3.7092594,19.315922 3.1756359,19.499889 q -0.090049,0.03104 -0.1141946,-0.03899 -0.022996,-0.0667 0.067053,-0.09775 l 0.6703645,-0.231109 0.5185576,1.504151 q 0.031045,0.09005 -0.038994,0.114195 -0.066703,0.023 -0.097747,-0.06705 l -0.1103803,-0.320174 -1.6042056,0.553051 0.1103803,0.320175 q 0.031045,0.09005 -0.038994,0.114194 -0.066703,0.023 -0.097747,-0.06705 L 2.1718266,20.506436 q -0.031045,-0.09005 0.035658,-0.113045 0.070038,-0.02415 0.1010826,0.0659 z"
             id="path2165" />
          <path
             d="M 2.8330565,17.546256 2.9835437,18.4725 3.5259656,18.577371 3.481272,18.302283 q -0.015275,-0.09402 0.054367,-0.105332 0.073125,-0.01188 0.0884,0.08214 l 0.085427,0.5258 q 0.015275,0.09402 -0.05785,0.105898 -0.069642,0.01131 -0.084917,-0.0827 L 3.549161,18.720138 1.7729929,18.36896 l 0.067889,0.417854 q 0.015275,0.09402 -0.05785,0.105898 -0.069642,0.01131 -0.084917,-0.0827 L 1.5827037,18.099657 3.28892,17.118362 3.2679875,16.989523 q -0.015275,-0.09402 0.054367,-0.105332 0.073125,-0.01188 0.0884,0.08214 l 0.088256,0.543211 q 0.015275,0.09402 -0.05785,0.105898 -0.069642,0.01131 -0.084917,-0.0827 l -0.042996,-0.264641 z m -0.1342808,0.07543 -0.9568985,0.55576 0.00849,0.05223 1.0813616,0.210307 z"
             id="path2167" />
          <path
             d="m 1.5647045,15.058977 1.1888138,0.01068 q 0.2998492,0.0027 0.5026132,0.209137 0.2027957,0.202915 0.2001324,0.499236 -0.0027,0.299849 -0.2055776,0.499118 -0.2064103,0.199236 -0.5097871,0.196509 l -1.1888139,-0.01069 -0.00108,0.11994 q -8.56e-4,0.09525 -0.074936,0.09458 -0.070553,-6.34e-4 -0.069697,-0.09588 l 0.00472,-0.525618 q 8.561e-4,-0.09525 0.071409,-0.09461 0.07408,6.66e-4 0.073224,0.09591 l -0.00235,0.261045 1.1888139,0.01068 Q 2.9820785,16.331185 3.1457766,16.1739 3.3095064,16.013087 3.3116308,15.776735 3.3137234,15.543911 3.1529106,15.380181 2.9885701,15.21642 2.7522184,15.214296 l -1.1888139,-0.01068 -0.00235,0.261045 q -8.56e-4,0.09525 -0.074936,0.09458 -0.070553,-6.34e-4 -0.069697,-0.09588 l 0.00472,-0.525618 q 8.561e-4,-0.09525 0.071409,-0.09461 0.07408,6.65e-4 0.073224,0.09591 z"
             id="path2169" />
          <path
             d="m 3.3326034,14.327492 -1.6700465,-0.300477 -0.02124,0.118049 q -0.016867,0.09375 -0.089779,0.08063 -0.069441,-0.01249 -0.052574,-0.106238 l 0.1374322,-0.763847 q 0.060595,-0.336787 0.358755,-0.519714 0.2953125,-0.187023 0.6633477,-0.120806 l 0.1944337,0.03498 q 0.3715072,0.06684 0.5865831,0.345695 0.2122285,0.274757 0.1516334,0.611544 l -0.1374322,0.763846 q -0.016867,0.09375 -0.089779,0.08063 -0.069441,-0.01249 -0.052574,-0.106238 z M 2.6051105,12.852441 q -0.069441,-0.01249 -0.1792237,1.4e-5 -0.1097832,0.01251 -0.2472701,0.05946 -0.1403342,0.04286 -0.2527473,0.169591 -0.1152605,0.122639 -0.1483692,0.306656 l -0.089331,0.496501 1.6700464,0.300477 0.093704,-0.520805 Q 3.4968973,13.414348 3.3166142,13.181183 3.1363311,12.948019 2.8585687,12.898043 Z"
             id="path2171" />
          <path
             d="m 2.2348751,10.939916 q 0.127137,-0.351668 0.5009285,-0.482872 0.3716732,-0.13572 0.793012,0.0166 0.4014331,0.145129 0.5991925,0.490464 0.1944418,0.344137 0.070903,0.685852 Q 4.074173,11.994998 3.7013003,12.134036 3.3296271,12.269756 2.9182411,12.12103 2.5068552,11.972303 2.3078964,11.630285 2.1101369,11.28495 2.2348751,10.939916 Z m 0.1360228,0.04918 q -0.1031489,0.285316 0.072509,0.577647 0.1756584,0.29233 0.5240094,0.418268 0.3483509,0.125938 0.6703368,0.01352 0.3219859,-0.11242 0.4251348,-0.397736 0.1019494,-0.281999 -0.070391,-0.57313 Q 3.8180379,10.732017 3.4763222,10.608478 3.1180183,10.478942 2.7960324,10.591358 2.475246,10.70046 2.3708977,10.989094 Z"
             id="path2173" />
          <path
             d="M 4.5572228,9.3362722 4.4770615,9.4773689 3.1172184,9.3499219 3.1032774,9.3744604 4.578658,10.212669 4.7076132,9.9856871 q 0.048794,-0.085885 0.1101402,-0.051032 0.064414,0.036595 0.01562,0.1224799 l -0.2596529,0.457031 q -0.047051,0.08282 -0.1114649,0.04622 -0.061346,-0.03485 -0.014295,-0.11767 l 0.05925,-0.104289 -1.4753807,-0.8382083 -0.043566,0.076683 Q 2.9412121,9.6597211 2.8767984,9.6231258 2.815452,9.588273 2.8625032,9.5054554 L 3.0350243,9.2017908 4.3760454,9.3266592 3.5769843,8.2478544 3.751248,7.9411224 q 0.047051,-0.082818 0.1083976,-0.047965 0.064414,0.036595 0.017362,0.119413 l -0.043566,0.076683 1.4753807,0.8382084 0.05925,-0.1042889 q 0.047051,-0.082818 0.1083976,-0.047965 0.064414,0.036595 0.017362,0.119413 L 5.2341797,9.3516517 Q 5.1871285,9.4344693 5.1227148,9.397874 5.0613684,9.3630212 5.1084196,9.2802036 L 5.2373748,9.053222 3.7619941,8.2150136 3.748053,8.2395522 Z"
             id="path2175" />
          <path
             d="M 4.8489976,6.7449236 6.160436,7.8217107 6.4716074,7.4427295 q 0.062682,-0.076342 0.1172116,-0.031569 0.057256,0.047011 -0.00543,0.123353 L 5.869262,8.4042617 q -0.060443,0.073615 -0.1176995,0.026604 -0.05453,-0.044773 0.00591,-0.1183879 L 6.0686517,7.9334965 4.7572132,6.8567094 4.4460419,7.2356906 q -0.060443,0.073615 -0.1176995,0.026604 -0.05453,-0.044773 0.00591,-0.1183879 l 0.714127,-0.8697482 q 0.062682,-0.076341 0.1172116,-0.031569 0.057256,0.047011 -0.00543,0.123353 z"
             id="path2177" />
          <path
             d="M 6.7642755,6.0960827 7.248756,6.6565409 7.4489197,6.4835121 q 0.072059,-0.06229 0.1181999,-0.00891 0.048448,0.056046 -0.023611,0.1183362 L 7.0898045,6.9851334 q -0.072059,0.06229 -0.120507,0.00624 -0.046141,-0.053377 0.025918,-0.1156673 L 7.1393332,6.7511299 6.0296421,5.4674139 5.8855243,5.5919946 q -0.072059,0.06229 -0.120507,0.00624 -0.046141,-0.053377 0.025918,-0.1156673 L 6.4528096,4.9104234 Q 6.6476356,4.7420087 6.8975159,4.7451709 7.147758,4.7433572 7.2931022,4.9114947 7.516886,5.170373 7.2566545,5.6191577 7.455916,5.5961295 7.6359082,5.6317266 7.8159004,5.6673238 8.2255545,5.8121605 l 0.082734,-0.071518 q 0.072059,-0.06229 0.1181999,-0.00891 0.048448,0.056046 -0.023611,0.1183362 L 8.2507535,5.9815666 Q 7.7931494,5.8082324 7.5607294,5.7713243 7.3286711,5.7294403 7.1165635,5.7915521 Z M 6.6696864,5.9866599 6.9739352,5.7236562 Q 7.1714299,5.5529345 7.2317703,5.3422271 7.2921108,5.1315196 7.1813723,5.0034149 7.0775551,4.8833167 6.8843549,4.891779 6.6915165,4.8952654 6.5473987,5.0198461 L 6.1390649,5.3728248 Z"
             id="path2179" />
          <path
             d="M 8.3611401,3.4734372 Q 8.680968,3.2796724 9.0542256,3.4123867 9.4286726,3.5402558 9.6608247,3.9234457 9.8820091,4.2885322 9.8189557,4.6814569 9.7540744,5.0713644 9.4432983,5.2596453 9.129505,5.4497542 8.7520408,5.323713 8.3775939,5.1958439 8.1509256,4.8217057 7.9242573,4.4475675 7.9842935,4.0564708 8.0473468,3.663546 8.3611401,3.4734372 Z m 0.074947,0.123707 Q 8.176604,3.7543496 8.1296499,4.092149 8.0826958,4.4299484 8.2746326,4.746759 8.4665694,5.0635695 8.787719,5.1783566 9.1088686,5.2931437 9.3683516,5.1359383 9.6248172,4.9805609 9.6735993,4.6457787 9.7235707,4.3061513 9.5352898,3.9953752 9.337869,3.6695129 9.0167194,3.5547258 8.6985871,3.4381108 8.4360871,3.5971442 Z"
             id="path2181" />
          <path
             d="m 13.302697,3.0653748 -0.1589,0.032938 -0.802006,-1.1055327 -0.02763,0.00573 0.344418,1.6615405 0.255622,-0.052987 q 0.09672,-0.020049 0.111043,0.049038 0.01504,0.072541 -0.08169,0.092591 L 12.428857,3.855381 q -0.09327,0.019333 -0.108304,-0.053208 -0.01432,-0.069087 0.07895,-0.08842 l 0.117448,-0.024346 -0.344419,-1.6615406 -0.08636,0.017901 q -0.09327,0.019333 -0.108305,-0.053208 -0.01432,-0.069087 0.07895,-0.08842 l 0.34198,-0.070889 0.791517,1.0896931 0.282785,-1.3123838 0.345434,-0.071605 q 0.09327,-0.019333 0.107589,0.049754 0.01504,0.072541 -0.07823,0.091875 l -0.08636,0.017901 0.344418,1.6615406 0.117448,-0.024346 q 0.09327,-0.019333 0.107589,0.049754 0.01504,0.072541 -0.07823,0.091875 l -0.514697,0.106691 q -0.09327,0.019333 -0.108305,-0.053208 -0.01432,-0.069087 0.07895,-0.08842 l 0.255621,-0.052987 -0.344419,-1.6615405 -0.02763,0.00573 z"
             id="path2183" />
          <path
             d="m 15.363877,1.3858027 q 0.373728,-0.01273 0.634503,0.2854827 0.264181,0.2945667 0.279432,0.7423351 0.01453,0.426614 -0.232519,0.7385939 -0.247171,0.3084542 -0.610322,0.3208237 -0.366676,0.01249 -0.634383,-0.281957 Q 14.536407,2.8965145 14.521516,2.4593233 14.506624,2.0221321 14.750149,1.7102722 14.9972,1.3982923 15.363877,1.3858027 Z m 0.0049,0.1445552 q -0.303213,0.010328 -0.509276,0.2820836 -0.206063,0.2717558 -0.193453,0.641958 0.01261,0.3702022 0.236686,0.6273068 0.224077,0.2571045 0.52729,0.2467766 0.299688,-0.010208 0.505871,-0.2784378 Q 16.145507,2.7781692 16.133137,2.4150185 16.120167,2.0342391 15.89609,1.7771345 15.675539,1.5199099 15.3688,1.5303579 Z"
             id="path2185" />
          <path
             d="m 18.247118,3.6192968 -0.181771,-0.024723 -0.826532,-1.9067906 -0.220131,1.6184605 0.262169,0.035658 q 0.09438,0.012837 0.08487,0.082749 -0.01,0.073407 -0.104366,0.06057 l -0.524339,-0.071317 q -0.09438,-0.012837 -0.0844,-0.086245 0.0095,-0.069912 0.10389,-0.057075 l 0.11885,0.016165 0.228689,-1.6813812 -0.188762,-0.025674 q -0.09438,-0.012837 -0.0844,-0.086245 0.0095,-0.069912 0.10389,-0.057075 L 17.305318,1.4867728 18.13185,3.3935634 18.351981,1.775103 18.093307,1.73992 q -0.09788,-0.013312 -0.08789,-0.08672 0.0095,-0.069912 0.107385,-0.0566 l 0.520844,0.070841 q 0.09438,0.012837 0.08487,0.082749 -0.01,0.073408 -0.104365,0.060571 L 18.4953,1.7945962 Z"
             id="path2187" />
          <path
             d="m 19.721902,3.8683997 0.353432,0.1108807 q 0.09088,0.028512 0.06976,0.095833 -0.02218,0.070686 -0.113059,0.042174 L 19.187167,3.8522295 q -0.09088,-0.028512 -0.06871,-0.099199 0.02112,-0.06732 0.112003,-0.038808 l 0.353432,0.1108807 0.507939,-1.619055 -0.562125,-0.1763531 -0.07709,0.2457194 q -0.02851,0.090883 -0.0992,0.068706 -0.06732,-0.02112 -0.03881,-0.1120026 l 0.120385,-0.3837262 1.534905,0.4815392 -0.120385,0.3837261 q -0.02851,0.090882 -0.09583,0.069762 -0.03029,-0.0095 -0.0431,-0.039402 -0.01175,-0.033264 9.24e-4,-0.073656 l 0.07709,-0.2457193 -0.558759,-0.1752972 z"
             id="path2189" />
          <path
             d="m 21.578117,3.7141077 -0.371584,0.7252694 0.985864,0.5050964 0.191422,-0.3736236 q 0.04343,-0.084772 0.109366,-0.050991 0.06279,0.032172 0.01936,0.1169434 L 22.255173,5.139153 20.84231,4.4152888 q -0.08477,-0.043432 -0.05099,-0.1093655 0.03217,-0.062794 0.116944,-0.019362 l 0.169543,0.086864 0.773731,-1.5101929 -0.169544,-0.086864 q -0.08477,-0.043432 -0.05099,-0.1093654 0.03217,-0.062794 0.116943,-0.019362 l 1.346929,0.6900839 -0.223594,0.4364175 q -0.04343,0.084772 -0.109365,0.050991 -0.06279,-0.032172 -0.01936,-0.1169435 l 0.157641,-0.30769 -0.91993,-0.4713161 -0.336195,0.6561961 0.455256,0.2332451 0.07239,-0.1412862 q 0.04343,-0.084772 0.109366,-0.050991 0.06279,0.032172 0.01936,0.1169435 L 22.08972,4.1545912 q -0.04343,0.084772 -0.106226,0.0526 -0.06593,-0.03378 -0.0225,-0.1185521 l 0.07239,-0.1412862 z"
             id="path2191" />
          <path
             d="m 24.519304,4.4755988 -1.018883,1.3569151 0.392123,0.2944381 q 0.07899,0.059311 0.03662,0.1157319 -0.04448,0.059242 -0.123472,-6.97e-5 l -0.899909,-0.675725 q -0.07617,-0.057193 -0.03168,-0.1164346 0.04236,-0.056421 0.118533,7.724e-4 l 0.392123,0.2944382 1.018883,-1.356915 -0.392123,-0.2944382 q -0.07617,-0.057193 -0.03168,-0.1164347 0.04237,-0.05642 0.118533,7.725e-4 l 0.899908,0.675725 q 0.07899,0.059311 0.03662,0.1157319 -0.04448,0.059242 -0.123472,-6.97e-5 z"
             id="path2193" />
          <path
             d="m 25.250761,6.3610243 -0.539063,0.5081793 0.181493,0.1925224 q 0.06534,0.069308 0.014,0.117706 -0.05391,0.050818 -0.119244,-0.01849 L 24.376564,6.724558 q -0.06534,-0.069308 -0.01143,-0.120126 0.05134,-0.048398 0.116676,0.02091 l 0.130675,0.1386161 1.23471,-1.1639726 -0.130675,-0.1386161 q -0.06534,-0.069308 -0.01143,-0.120126 0.05134,-0.048398 0.116677,0.02091 l 0.600135,0.6366073 q 0.176653,0.1873884 0.184261,0.4371729 0.01259,0.2499316 -0.149125,0.4023854 -0.248995,0.2347304 -0.708576,-0.00592 0.03159,0.1980842 0.0038,0.379443 -0.02781,0.1813589 -0.15486,0.5968732 l 0.07502,0.079576 q 0.06534,0.069308 0.014,0.1177061 -0.05391,0.050818 -0.119244,-0.01849 L 25.429244,7.8411903 Q 25.5827,7.3765426 25.60956,7.1427482 25.64141,6.9091007 25.57021,6.6998663 Z m 0.105245,-0.099216 0.275869,0.292634 q 0.179073,0.1899554 0.392184,0.2411609 0.213112,0.051206 0.336326,-0.06495 0.115514,-0.1088955 0.09873,-0.3015517 -0.01179,-0.1925091 -0.142467,-0.3311252 l -0.37024,-0.3927454 z"
             id="path2195" />
          <path
             d="m 27.939635,7.844806 q 0.207186,0.3113015 0.09046,0.6898636 -0.111835,0.3795443 -0.48481,0.6277765 -0.355353,0.2365046 -0.750603,0.190212 -0.392313,-0.048247 -0.593635,-0.3507384 -0.203277,-0.3054279 -0.0934,-0.687909 0.111835,-0.3795443 0.475999,-0.6219127 0.364164,-0.2423684 0.757459,-0.1990125 0.39525,0.046293 0.598527,0.3517205 z m -0.120409,0.080138 q -0.168094,-0.2525654 -0.507584,-0.2851168 -0.33949,-0.032551 -0.647855,0.1726799 -0.308365,0.2052313 -0.409396,0.5309703 -0.101031,0.325739 0.06706,0.5783044 0.166139,0.2496286 0.502693,0.2841346 0.341444,0.035488 0.643935,-0.165834 0.317175,-0.211095 0.418206,-0.536834 0.102986,-0.3228022 -0.06706,-0.5783044 z"
             id="path2197" />
        </g>
        <g
           aria-label="WEB DEVELOPER"
           transform="rotate(0.92928279,26.119992,10.196544)"
           id="text1041"
           style="font-size:3.52778px;font-family:FreeMono;-inkscape-font-specification:FreeMono;stroke:#000000;stroke-width:0.264583">
          <path
             d="m 9.9592648,26.868365 0.6004282,-1.753686 -0.04778,-0.02275 q -0.086,-0.04094 -0.05416,-0.107833 0.03033,-0.0637 0.116329,-0.02276 l 0.474603,0.225939 q 0.08919,0.04246 0.05886,0.106163 -0.03184,0.06689 -0.121031,0.02443 l -0.296228,-0.141022 -0.543417,1.601099 0.951165,-1.078788 0.197486,0.09401 -0.247223,1.413905 0.90335,-1.429749 -0.305784,-0.145572 q -0.086,-0.04094 -0.05416,-0.107832 0.03033,-0.06371 0.11633,-0.02276 l 0.477788,0.227455 q 0.086,0.04094 0.05568,0.104647 -0.03184,0.06689 -0.117846,0.02595 l -0.04778,-0.02275 -0.989029,1.568689 -0.203857,-0.09705 0.249798,-1.443936 -0.972851,1.099721 z"
             id="path2200" />
          <path
             d="m 12.306514,26.829491 -0.220717,0.784458 1.066319,0.300023 0.113703,-0.404115 q 0.0258,-0.09169 0.09711,-0.07162 0.06792,0.01911 0.04212,0.110799 l -0.152878,0.543348 -1.528164,-0.42997 q -0.09169,-0.0258 -0.07162,-0.09711 0.01911,-0.06792 0.110799,-0.04212 l 0.18338,0.0516 0.45959,-1.633438 -0.18338,-0.0516 q -0.09169,-0.0258 -0.07162,-0.09711 0.01911,-0.06792 0.1108,-0.04212 l 1.45685,0.409904 -0.132813,0.472033 q -0.0258,0.09169 -0.09711,0.07163 -0.06792,-0.01911 -0.04212,-0.1108 l 0.09364,-0.3328 -0.995005,-0.279958 -0.199697,0.709747 0.492409,0.138546 0.043,-0.152816 q 0.0258,-0.09169 0.09711,-0.07163 0.06792,0.01911 0.04212,0.1108 l -0.125169,0.444865 q -0.0258,0.09169 -0.09372,0.07258 -0.07131,-0.02006 -0.04552,-0.111755 l 0.043,-0.152816 z"
             id="path2202" />
          <path
             d="m 13.978962,28.070976 0.175049,-1.687809 -0.189483,-0.01965 q -0.09474,-0.0098 -0.0871,-0.08351 0.0073,-0.07018 0.102021,-0.06035 l 0.905311,0.09389 q 0.256154,0.02657 0.412808,0.191776 0.157018,0.161699 0.134454,0.379255 -0.02693,0.259663 -0.341933,0.390141 0.429261,0.204122 0.392868,0.555018 -0.02293,0.221064 -0.211243,0.361135 -0.184807,0.140434 -0.423416,0.115687 l -1.073741,-0.111362 q -0.09474,-0.0098 -0.0871,-0.08351 0.0073,-0.07018 0.102021,-0.06035 z m 0.242856,-0.939516 0.515816,0.0535 q 0.224574,0.02329 0.379359,-0.06706 0.154785,-0.09035 0.171526,-0.25176 0.01601,-0.154394 -0.103265,-0.26962 -0.118913,-0.118734 -0.311906,-0.13875 l -0.575469,-0.05968 z m 1.117272,0.68335 q 0.0076,-0.07369 -0.01702,-0.143634 -0.02116,-0.06958 -0.08128,-0.139658 -0.05976,-0.07358 -0.192602,-0.126376 -0.128973,-0.05594 -0.318457,-0.07559 l -0.522835,-0.05423 -0.08407,0.81057 0.729863,0.0757 q 0.185975,0.01929 0.327452,-0.07953 0.141841,-0.10233 0.158946,-0.267251 z"
             id="path2204" />
          <path
             d="m 18.079367,28.019491 -0.396315,-1.649932 -0.116627,0.02801 q -0.09262,0.02225 -0.109918,-0.04979 -0.01648,-0.0686 0.07614,-0.09085 l 0.754647,-0.181267 q 0.332731,-0.07992 0.620096,0.119534 0.289972,0.195201 0.37731,0.558804 l 0.04614,0.192091 q 0.08816,0.367033 -0.08069,0.676073 -0.166246,0.304785 -0.498977,0.384708 l -0.754646,0.181266 q -0.09262,0.02225 -0.109919,-0.04979 -0.01648,-0.0686 0.07614,-0.09085 z m 1.058099,-1.259147 q -0.01648,-0.0686 -0.07207,-0.164095 -0.05559,-0.09549 -0.153857,-0.202499 -0.09566,-0.111263 -0.256897,-0.163237 -0.15863,-0.05623 -0.340432,-0.01256 l -0.49052,0.117823 0.396315,1.649932 0.514532,-0.123591 q 0.246975,-0.05932 0.387983,-0.318137 0.141007,-0.258814 0.07509,-0.533231 z"
             id="path2206" />
          <path
             d="m 19.976702,26.638746 0.320811,0.749114 1.018275,-0.43608 -0.165266,-0.385907 q -0.0375,-0.08756 0.0306,-0.116723 0.06486,-0.02778 0.102355,0.05978 l 0.222207,0.518867 -1.459312,0.624955 q -0.08756,0.0375 -0.116723,-0.0306 -0.02778,-0.06486 0.05978,-0.102355 l 0.175117,-0.07499 -0.668008,-1.559842 -0.175117,0.07499 q -0.08756,0.0375 -0.116723,-0.0306 -0.02778,-0.06486 0.05978,-0.102356 l 1.391211,-0.595791 0.193042,0.450766 q 0.0375,0.08756 -0.0306,0.116723 -0.06486,0.02778 -0.102356,-0.05978 l -0.136101,-0.317806 -0.950174,0.406916 0.290257,0.677769 0.470222,-0.201375 -0.06249,-0.145931 q -0.0375,-0.08756 0.0306,-0.116723 0.06486,-0.02778 0.102355,0.05978 l 0.181932,0.424822 q 0.0375,0.08756 -0.02736,0.115334 -0.0681,0.02916 -0.105599,-0.05839 l -0.06249,-0.145931 z"
             id="path2208" />
          <path
             d="m 22.560538,26.402823 -1.592843,-1.162665 -0.09181,0.05942 q -0.07997,0.05175 -0.120216,-0.01045 -0.03833,-0.05923 0.04163,-0.110984 l 0.447215,-0.289418 q 0.07997,-0.05175 0.118299,0.0075 0.04025,0.0622 -0.03972,0.113946 l -0.228049,0.147584 1.472795,1.068069 0.0089,-0.0057 -0.350316,-1.794489 -0.231012,0.1495 q -0.07997,0.05175 -0.120216,-0.01045 -0.03833,-0.05923 0.04163,-0.110984 l 0.444253,-0.287501 q 0.07997,-0.05175 0.118299,0.0075 0.04025,0.0622 -0.03972,0.113946 l -0.09181,0.05942 0.381513,1.946585 z"
             id="path2210" />
          <path
             d="m 23.328109,24.661592 0.552598,0.598938 0.81414,-0.751149 -0.284671,-0.308544 q -0.06459,-0.07001 -0.01014,-0.120242 0.05186,-0.04784 0.116445,0.02216 l 0.382751,0.414849 -1.166762,1.076487 q -0.07001,0.06459 -0.120242,0.01014 -0.04784,-0.05186 0.02216,-0.116446 l 0.140012,-0.129178 -1.150646,-1.247139 -0.140012,0.129179 q -0.07001,0.06459 -0.120242,0.01014 -0.04784,-0.05186 0.02216,-0.116445 l 1.112313,-1.026252 0.332515,0.3604 q 0.06459,0.07001 0.01014,0.120241 -0.05186,0.04784 -0.116446,-0.02216 l -0.234435,-0.254095 -0.759691,0.700913 0.499968,0.541896 0.375957,-0.346868 -0.107649,-0.116676 q -0.06459,-0.07001 -0.01014,-0.120242 0.05186,-0.04784 0.116445,0.02216 l 0.313378,0.339657 q 0.06459,0.07001 0.01273,0.11785 -0.05445,0.05024 -0.119038,-0.01977 L 23.704058,24.31472 Z"
             id="path2212" />
          <path
             d="m 24.137468,22.565154 1.345592,1.033791 0.586746,-0.763715 -0.447598,-0.34388 q -0.07553,-0.05803 -0.0304,-0.116777 0.04299,-0.05595 0.118517,0.0021 l 0.562295,0.431999 -0.969313,1.261668 q -0.05803,0.07553 -0.116777,0.0304 -0.05595,-0.04299 0.0021,-0.118517 l 0.206329,-0.268559 -1.345593,-1.033791 -0.206328,0.268559 q -0.05803,0.07553 -0.116777,0.0304 -0.05595,-0.04299 0.0021,-0.118517 L 24.229137,22.2085 q 0.05803,-0.07553 0.113979,-0.03255 0.05875,0.04513 7.18e-4,0.120666 z"
             id="path2214" />
          <path
             d="m 25.101281,20.752669 q 0.174993,-0.330473 0.563442,-0.408201 0.386982,-0.0825 0.782926,0.127164 0.377238,0.199755 0.524844,0.56932 0.144488,0.367914 -0.02555,0.689034 -0.171691,0.324237 -0.560324,0.409852 -0.386982,0.0825 -0.773573,-0.122211 -0.386591,-0.204708 -0.535848,-0.571156 -0.147605,-0.369564 0.02408,-0.693802 z m 0.127825,0.06769 q -0.141975,0.268119 -0.0089,0.582113 0.133122,0.313993 0.460477,0.487334 0.327355,0.173342 0.661883,0.10698 0.334528,-0.06636 0.476503,-0.334482 0.140325,-0.265002 0.01032,-0.577344 -0.131471,-0.317111 -0.45259,-0.487151 -0.336709,-0.178294 -0.671237,-0.111932 -0.332877,0.06324 -0.476503,0.334482 z"
             id="path2216" />
          <path
             d="m 26.802647,19.956488 0.636752,0.209331 0.152041,-0.462483 q 0.03085,-0.09384 0.09788,-0.0718 0.07038,0.02314 0.03953,0.116974 l -0.256706,0.780859 q -0.02975,0.09049 -0.100125,0.06735 -0.06703,-0.02203 -0.03728,-0.112521 l 0.05949,-0.180971 -1.611989,-0.529939 -0.05949,0.180972 q -0.02975,0.09049 -0.100125,0.06735 -0.06703,-0.02203 -0.03728,-0.112521 l 0.264418,-0.804318 q 0.08814,-0.268106 0.308498,-0.396194 0.218108,-0.132541 0.452701,-0.05542 0.234593,0.07712 0.333805,0.328835 0.09586,0.250612 0.0022,0.535475 z m -0.137405,-0.04517 0.147634,-0.449078 q 0.07161,-0.217836 -6.04e-4,-0.416113 -0.07222,-0.198277 -0.246486,-0.255568 -0.170917,-0.05619 -0.33894,0.04825 -0.170273,0.09999 -0.235275,0.29772 l -0.16416,0.499348 z"
             id="path2218" />
          <path
             d="m 27.193102,18.032107 0.806167,0.119101 0.161894,-1.095829 -0.415298,-0.06135 q -0.09423,-0.01392 -0.0834,-0.08721 0.01031,-0.0698 0.104539,-0.05588 l 0.558384,0.08249 -0.232014,1.570455 q -0.01392,0.09423 -0.08721,0.0834 -0.0698,-0.01031 -0.05588,-0.104539 l 0.02784,-0.188454 -1.678642,-0.247997 -0.02784,0.188454 q -0.01392,0.09423 -0.08721,0.0834 -0.0698,-0.01031 -0.05588,-0.104539 l 0.221186,-1.497167 0.485096,0.07167 q 0.09423,0.01392 0.0834,0.08721 -0.01031,0.0698 -0.104539,0.05588 l -0.34201,-0.05053 -0.151067,1.022541 0.729389,0.107757 0.07476,-0.506035 -0.157046,-0.0232 q -0.09423,-0.01392 -0.0834,-0.08721 0.01031,-0.0698 0.104539,-0.05588 l 0.457177,0.06754 q 0.09423,0.01392 0.08392,0.08372 -0.01083,0.07329 -0.105055,0.05937 l -0.157046,-0.0232 z"
             id="path2220" />
          <path
             d="m 27.467644,16.08814 0.740627,-0.01753 -0.0063,-0.26451 q -0.0023,-0.09522 0.06828,-0.09689 0.07406,-0.0018 0.07632,0.09347 l 0.01419,0.599555 q 0.0023,0.09522 -0.07181,0.09698 -0.07054,0.0017 -0.07279,-0.09355 l -0.0045,-0.190447 -1.696387,0.04016 0.0045,0.190447 q 0.0023,0.09522 -0.07181,0.09698 -0.07054,0.0017 -0.07279,-0.09355 l -0.02071,-0.874644 q -0.0061,-0.257456 0.155239,-0.4483 0.157723,-0.194288 0.379911,-0.199548 0.342099,-0.0081 0.522991,0.478117 0.108933,-0.168431 0.25086,-0.284711 0.141926,-0.116281 0.5142,-0.340349 l -0.0026,-0.109331 q -0.0023,-0.09522 0.06828,-0.09689 0.07406,-0.0018 0.07632,0.09347 l 0.0048,0.201027 q -0.424758,0.242955 -0.601034,0.398865 -0.179886,0.152467 -0.266824,0.355665 z m -0.144598,0.0034 -0.0095,-0.402054 q -0.0062,-0.260983 -0.130432,-0.441537 -0.124252,-0.180555 -0.293538,-0.176547 -0.158706,0.0038 -0.275026,0.158248 -0.119931,0.151048 -0.115423,0.341494 l 0.01277,0.5396 z"
             id="path2222" />
        </g>
      </g>
      <text
         xml:space="preserve"
         style="font-style:normal;font-variant:normal;font-weight:normal;font-stretch:normal;font-size:8.95505px;font-family:FreeMono;-inkscape-font-specification:FreeMono;fill:#000000;fill-opacity:1;stroke:#000000;stroke-width:0.264583;stroke-dasharray:none;stroke-opacity:1"
         x="7.8154678"
         y="18.503307"
         id="text1054"><tspan
           sodipodi:role="line"
           id="tspan1052"
           style="fill:#000000;fill-opacity:1;stroke:#000000;stroke-width:0.264583;stroke-dasharray:none;stroke-opacity:1"
           x="7.8154678"
           y="18.503307">&lt;/&gt;</tspan></text>
    </g>
  </g>
</svg>
